<?xml version="1.0" encoding="UTF-8"?>
<svg width="116px" height="120px" viewBox="0 0 116 120" version="1.1" xmlns="http://www.w3.org/2000/svg" xmlns:xlink="http://www.w3.org/1999/xlink">
    <!-- Generator: Sketch 41 (35326) - http://www.bohemiancoding.com/sketch -->
    <title>Archade_badge</title>
    <desc>Created with Sketch.</desc>
    <defs></defs>
    <g id="Page-1" stroke="none" stroke-width="1" fill="none" fill-rule="evenodd">
        <g id="Archade_badge">
            <path d="M57.5069687,0.00608852691 L57.5069687,0 L57.4930308,0 L57.4930308,0.00608852691 L1,27.9141562 C1,95.3759042 56.5574475,117.621642 57.4930308,117.993912 L57.4930308,118 L57.4999998,117.996521 L57.5069687,118 L57.5069687,117.993912 C58.4442943,117.621642 114,95.3759042 114,27.9141562 L57.5069687,0.00608852691" id="path-1" fill="#7C42BA"></path>
            <path d="M10.4170182,33.6736152 L5.10867424,33.6736152 L5.10867424,28.3824415 L10.4170182,28.3824415 L10.4170182,33.6736152 Z M10.1584624,48.8615854 L5.36744784,48.8615854 L5.36744784,44.0860677 L10.1584624,44.0860677 L10.1584624,48.8615854 Z M9.89990665,64.0495556 L5.62567689,64.0495556 L5.62567689,59.7891511 L9.89990665,59.7891511 L9.89990665,64.0495556 Z M16.2423649,27.8671111 L10.9340209,27.8671111 L10.9340209,22.5759373 L16.2423649,22.5759373 L16.2423649,27.8671111 Z M15.9838091,43.0550813 L11.1927944,43.0550813 L11.1927944,38.2795635 L15.9838091,38.2795635 L15.9838091,43.0550813 Z M15.7253078,58.2430515 L11.451078,58.2430515 L11.451078,53.982647 L15.7253078,53.982647 L15.7253078,58.2430515 Z M15.466752,73.4310217 L11.7098516,73.4310217 L11.7098516,69.6862732 L15.466752,69.6862732 L15.466752,73.4310217 Z M22.067766,33.6736152 L16.759422,33.6736152 L16.759422,28.3824415 L22.067766,28.3824415 L22.067766,33.6736152 Z M21.8092102,48.8615854 L17.0181955,48.8615854 L17.0181955,44.0860677 L21.8092102,44.0860677 L21.8092102,48.8615854 Z M21.5506544,64.0495556 L17.2764246,64.0495556 L17.2764246,59.7891511 L21.5506544,59.7891511 L21.5506544,64.0495556 Z M21.2920987,79.2375259 L17.5351983,79.2375259 L17.5351983,75.4927774 L21.2920987,75.4927774 L21.2920987,79.2375259 Z M27.8931126,27.8671111 L22.5847686,27.8671111 L22.5847686,22.5759373 L27.8931126,22.5759373 L27.8931126,27.8671111 Z M27.6345568,43.0550813 L22.8435422,43.0550813 L22.8435422,38.2795635 L27.6345568,38.2795635 L27.6345568,43.0550813 Z M27.376001,58.2430515 L23.1017713,58.2430515 L23.1017713,53.982647 L27.376001,53.982647 L27.376001,58.2430515 Z M27.1174453,73.4310217 L23.3605448,73.4310217 L23.3605448,69.6862732 L27.1174453,69.6862732 L27.1174453,73.4310217 Z M26.858944,88.6189376 L23.6188283,88.6189376 L23.6188283,85.3893024 L26.858944,85.3893024 L26.858944,88.6189376 Z M33.977015,18.4893579 L29.7027852,18.4893579 L29.7027852,13.679358 L33.977015,13.679358 L33.977015,18.4893579 Z M33.7184593,33.6736152 L28.4101153,33.6736152 L28.4101153,28.3824415 L33.7184593,28.3824415 L33.7184593,33.6736152 Z M33.4599035,48.8615854 L28.6688889,48.8615854 L28.6688889,44.0860677 L33.4599035,44.0860677 L33.4599035,48.8615854 Z M33.2014021,64.0495556 L28.9271724,64.0495556 L28.9271724,59.7891511 L33.2014021,59.7891511 L33.2014021,64.0495556 Z M32.9428464,79.2375259 L29.1859459,79.2375259 L29.1859459,75.4927774 L32.9428464,75.4927774 L32.9428464,79.2375259 Z M32.6842906,94.4254417 L29.444175,94.4254417 L29.444175,91.1958065 L32.6842906,91.1958065 L32.6842906,94.4254417 Z M39.5438604,27.8671111 L34.2355164,27.8671111 L34.2355164,22.5759373 L39.5438604,22.5759373 L39.5438604,27.8671111 Z M39.2853046,43.0550813 L34.4942899,43.0550813 L34.4942899,38.2795635 L39.2853046,38.2795635 L39.2853046,43.0550813 Z M39.0267488,58.2430515 L34.752519,58.2430515 L34.752519,53.982647 L39.0267488,53.982647 L39.0267488,58.2430515 Z M38.768193,73.4310217 L35.0112926,73.4310217 L35.0112926,69.6862732 L38.768193,69.6862732 L38.768193,73.4310217 Z M38.5096373,88.6189376 L35.2695216,88.6189376 L35.2695216,85.3893024 L38.5096373,85.3893024 L38.5096373,88.6189376 Z M38.2510815,103.806908 L35.5282952,103.806908 L35.5282952,101.092929 L38.2510815,101.092929 L38.2510815,103.806908 Z M45.6277628,18.485645 L39.802634,18.485645 L39.802634,12.679358 L45.6277628,12.679358 L45.6277628,18.485645 Z M45.369207,33.6736152 L40.060863,33.6736152 L40.060863,28.3824415 L45.369207,28.3824415 L45.369207,33.6736152 Z M45.1106512,48.8615854 L40.3196366,48.8615854 L40.3196366,44.0860677 L45.1106512,44.0860677 L45.1106512,48.8615854 Z M44.8520954,64.0495556 L40.5778657,64.0495556 L40.5778657,59.7891511 L44.8520954,59.7891511 L44.8520954,64.0495556 Z M44.5935941,79.2375259 L40.8366937,79.2375259 L40.8366937,75.4927774 L44.5935941,75.4927774 L44.5935941,79.2375259 Z M44.3350384,94.4254417 L41.0949227,94.4254417 L41.0949227,91.1958065 L44.3350384,91.1958065 L44.3350384,94.4254417 Z M44.0764826,109.613412 L41.3536963,109.613412 L41.3536963,106.899433 L44.0764826,106.899433 L44.0764826,109.613412 Z M51.4531094,12.6791409 L45.6279806,12.6791409 L45.6279806,6.87285385 L51.4531094,6.87285385 L51.4531094,12.6791409 Z M51.1945536,27.8671111 L45.8862097,27.8671111 L45.8862097,22.5759373 L51.1945536,22.5759373 L51.1945536,27.8671111 Z M50.9360523,43.0550813 L46.1450377,43.0550813 L46.1450377,38.2795635 L50.9360523,38.2795635 L50.9360523,43.0550813 Z M50.6774965,58.2430515 L46.4032668,58.2430515 L46.4032668,53.982647 L50.6774965,53.982647 L50.6774965,58.2430515 Z M50.4189407,73.4310217 L46.6620403,73.4310217 L46.6620403,69.6862732 L50.4189407,69.6862732 L50.4189407,73.4310217 Z M50.160385,88.6189376 L46.9202694,88.6189376 L46.9202694,85.3893024 L50.160385,85.3893024 L50.160385,88.6189376 Z M49.9018292,103.806908 L47.179043,103.806908 L47.179043,101.092929 L49.9018292,101.092929 L49.9018292,103.806908 Z M57.2785105,18.485645 L51.4533817,18.485645 L51.4533817,12.679358 L57.2785105,12.679358 L57.2785105,18.485645 Z M57.0199547,33.6736152 L51.7116108,33.6736152 L51.7116108,28.3824415 L57.0199547,28.3824415 L57.0199547,33.6736152 Z M56.761399,48.8615854 L51.9703844,48.8615854 L51.9703844,44.0860677 L56.761399,44.0860677 L56.761399,48.8615854 Z M56.5028432,64.0495556 L52.2286134,64.0495556 L52.2286134,59.7891511 L56.5028432,59.7891511 L56.5028432,64.0495556 Z M56.2442874,79.2375259 L52.487387,79.2375259 L52.487387,75.4927774 L56.2442874,75.4927774 L56.2442874,79.2375259 Z M55.9857317,94.4254417 L52.7456161,94.4254417 L52.7456161,91.1958065 L55.9857317,91.1958065 L55.9857317,94.4254417 Z M55.7272303,109.613412 L53.0044441,109.613412 L53.0044441,106.899433 L55.7272303,106.899433 L55.7272303,109.613412 Z M63.1038572,12.6791409 L57.2787284,12.6791409 L57.2787284,6.87285385 L63.1038572,6.87285385 L63.1038572,12.6791409 Z M62.8453014,27.8671111 L57.5369573,27.8671111 L57.5369573,22.5759373 L62.8453014,22.5759373 L62.8453014,27.8671111 Z M62.5867457,43.0550813 L57.795731,43.0550813 L57.795731,38.2795635 L62.5867457,38.2795635 L62.5867457,43.0550813 Z M62.3282443,58.2430515 L58.0540145,58.2430515 L58.0540145,53.982647 L62.3282443,53.982647 L62.3282443,58.2430515 Z M62.0696885,73.4310217 L58.3127881,73.4310217 L58.3127881,69.6862732 L62.0696885,69.6862732 L62.0696885,73.4310217 Z M61.8111328,88.6189376 L58.5710171,88.6189376 L58.5710171,85.3893024 L61.8111328,85.3893024 L61.8111328,88.6189376 Z M61.552577,103.806908 L58.8297907,103.806908 L58.8297907,101.092929 L61.552577,101.092929 L61.552577,103.806908 Z M68.9292038,18.485645 L63.104075,18.485645 L63.104075,12.679358 L68.9292038,12.679358 L68.9292038,18.485645 Z M68.6707025,33.6736152 L63.3623584,33.6736152 L63.3623584,28.3824415 L68.6707025,28.3824415 L68.6707025,33.6736152 Z M68.4121467,48.8615854 L63.6211321,48.8615854 L63.6211321,44.0860677 L68.4121467,44.0860677 L68.4121467,48.8615854 Z M68.1535909,64.0495556 L63.8793612,64.0495556 L63.8793612,59.7891511 L68.1535909,59.7891511 L68.1535909,64.0495556 Z M67.8950351,79.2375259 L64.1381347,79.2375259 L64.1381347,75.4927774 L67.8950351,75.4927774 L67.8950351,79.2375259 Z M67.6364793,94.4254417 L64.3963638,94.4254417 L64.3963638,91.1958065 L67.6364793,91.1958065 L67.6364793,94.4254417 Z M67.3779236,109.613412 L64.6551374,109.613412 L64.6551374,106.899433 L67.3779236,106.899433 L67.3779236,109.613412 Z M73.2037058,12.6791409 L68.9294761,12.6791409 L68.9294761,6.87285385 L73.2037058,6.87285385 L73.2037058,12.6791409 Z M74.4960491,27.8671111 L69.1877051,27.8671111 L69.1877051,22.5759373 L74.4960491,22.5759373 L74.4960491,27.8671111 Z M74.2374933,43.0550813 L69.4464788,43.0550813 L69.4464788,38.2795635 L74.2374933,38.2795635 L74.2374933,43.0550813 Z M73.9789376,58.2430515 L69.7047077,58.2430515 L69.7047077,53.982647 L73.9789376,53.982647 L73.9789376,58.2430515 Z M73.7203818,73.4310217 L69.9634814,73.4310217 L69.9634814,69.6862732 L73.7203818,69.6862732 L73.7203818,73.4310217 Z M73.461826,88.6189376 L70.2217105,88.6189376 L70.2217105,85.3893024 L73.461826,85.3893024 L73.461826,88.6189376 Z M73.2033247,103.806908 L70.4805385,103.806908 L70.4805385,101.092929 L73.2033247,101.092929 L73.2033247,103.806908 Z M80.5799516,18.485645 L74.7548227,18.485645 L74.7548227,12.679358 L80.5799516,12.679358 L80.5799516,18.485645 Z M80.3213958,33.6736152 L75.0130517,33.6736152 L75.0130517,28.3824415 L80.3213958,28.3824415 L80.3213958,33.6736152 Z M80.06284,48.8615854 L75.2718254,48.8615854 L75.2718254,44.0860677 L80.06284,44.0860677 L80.06284,48.8615854 Z M79.8043387,64.0495556 L75.5301088,64.0495556 L75.5301088,59.7891511 L79.8043387,59.7891511 L79.8043387,64.0495556 Z M79.5457829,79.2375259 L75.7888825,79.2375259 L75.7888825,75.4927774 L79.5457829,75.4927774 L79.5457829,79.2375259 Z M79.2872271,94.4254417 L76.0471116,94.4254417 L76.0471116,91.1958065 L79.2872271,91.1958065 L79.2872271,94.4254417 Z M86.1467969,27.8671111 L80.8384528,27.8671111 L80.8384528,22.5759373 L86.1467969,22.5759373 L86.1467969,27.8671111 Z M85.8882411,43.0550813 L81.0972265,43.0550813 L81.0972265,38.2795635 L85.8882411,38.2795635 L85.8882411,43.0550813 Z M85.6296853,58.2430515 L81.3554555,58.2430515 L81.3554555,53.982647 L85.6296853,53.982647 L85.6296853,58.2430515 Z M85.3711295,73.4310217 L81.6142291,73.4310217 L81.6142291,69.6862732 L85.3711295,69.6862732 L85.3711295,73.4310217 Z M85.1125737,88.6189376 L81.8724581,88.6189376 L81.8724581,85.3893024 L85.1125737,85.3893024 L85.1125737,88.6189376 Z M91.9721435,33.6736152 L86.6637995,33.6736152 L86.6637995,28.3824415 L91.9721435,28.3824415 L91.9721435,33.6736152 Z M91.7135877,48.8615854 L86.9225731,48.8615854 L86.9225731,44.0860677 L91.7135877,44.0860677 L91.7135877,48.8615854 Z M91.4550319,64.0495556 L87.1808021,64.0495556 L87.1808021,59.7891511 L91.4550319,59.7891511 L91.4550319,64.0495556 Z M91.1964762,79.2375259 L87.4395758,79.2375259 L87.4395758,75.4927774 L91.1964762,75.4927774 L91.1964762,79.2375259 Z M90.9379204,94.4254417 L87.6978048,94.4254417 L87.6978048,91.1958065 L90.9379204,91.1958065 L90.9379204,94.4254417 Z M97.7974899,27.8671111 L92.4891462,27.8671111 L92.4891462,22.5759373 L97.7974899,22.5759373 L97.7974899,27.8671111 Z M97.5389344,43.0550813 L92.7479197,43.0550813 L92.7479197,38.2795635 L97.5389344,38.2795635 L97.5389344,43.0550813 Z M97.280433,58.2430515 L93.0062032,58.2430515 L93.0062032,53.982647 L97.280433,53.982647 L97.280433,58.2430515 Z M97.0218773,73.4310217 L93.2649769,73.4310217 L93.2649769,69.6862732 L97.0218773,69.6862732 L97.0218773,73.4310217 Z M96.7633215,88.6189376 L93.5232059,88.6189376 L93.5232059,85.3893024 L96.7633215,85.3893024 L96.7633215,88.6189376 Z M103.622891,33.6736152 L98.3145469,33.6736152 L98.3145469,28.3824415 L103.622891,28.3824415 L103.622891,33.6736152 Z M103.364335,48.8615854 L98.5733213,48.8615854 L98.5733213,44.0860677 L103.364335,44.0860677 L103.364335,48.8615854 Z M103.10578,64.0495556 L98.8315496,64.0495556 L98.8315496,59.7891511 L103.10578,59.7891511 L103.10578,64.0495556 Z M102.847224,79.2375259 L99.0903231,79.2375259 L99.0903231,75.4927774 L102.847224,75.4927774 L102.847224,79.2375259 Z M109.189683,43.0550813 L104.398668,43.0550813 L104.398668,38.2795635 L109.189683,38.2795635 L109.189683,43.0550813 Z M108.931126,58.2430515 L104.656897,58.2430515 L104.656897,53.982647 L108.931126,53.982647 L108.931126,58.2430515 Z M115.273584,33.6736152 L109.96524,33.6736152 L109.96524,28.3824415 L115.273584,28.3824415 L115.273584,33.6736152 Z" id="Combined-Shape" fill="#6737A5"></path>
            <polygon id="Star" fill="#FFE345" points="57.5 57.2523698 46.6844052 64 49.625 51.4082897 40 42.9868444 52.6329823 41.9523697 57.5 30 62.3670177 41.9523697 75 42.9868444 65.375 51.4082897 68.3155948 64"></polygon>
            <polygon id="Star-Copy-2" fill="#FFE345" points="84.5 68.6338863 77.3926091 73 79.325 64.8524228 73 59.4032522 81.3016741 58.7338863 84.5 51 87.6983259 58.7338863 96 59.4032522 89.675 64.8524228 91.6073909 73"></polygon>
            <polygon id="Star-Copy-2-Copy" fill="#FFE345" points="30.5 68.6338863 23.3926091 73 25.325 64.8524228 19 59.4032522 27.3016741 58.7338863 30.5 51 33.6983259 58.7338863 42 59.4032522 35.675 64.8524228 37.6073909 73"></polygon>
            <path d="M57.507092,0.00619172289 L57.507092,0 L57.4929075,0 L57.4929075,0.00619172289 L0,28.3872776 C0,96.992445 56.5407651,119.615229 57.4929075,119.993809 L57.4929075,120 L57.4999998,119.996462 L57.507092,120 L57.507092,119.993809 C58.4610074,119.615229 115,96.992445 115,28.3872776 L57.507092,0.00619172289 M57.5070536,114.996467 L57.5070536,115 L57.4911832,115 L57.4911832,114.996467 C56.6236041,114.649377 5,93.9061421 5,31.0246487 L57.4911832,5.00618225 L57.4911832,5 L57.5000001,5.00264954 L57.5070536,5 L57.5070536,5.00618225 L110,31.0246487 C110,93.9061421 58.3763961,114.649377 57.5070536,114.996467" id="Fill-20" fill="#612C99"></path>
        </g>
    </g>
</svg>