<?xml version="1.0" encoding="UTF-8"?>
<svg width="115px" height="120px" viewBox="0 0 115 120" version="1.1" xmlns="http://www.w3.org/2000/svg" xmlns:xlink="http://www.w3.org/1999/xlink">
    <!-- Generator: Sketch 41 (35326) - http://www.bohemiancoding.com/sketch -->
    <title>Bots_badge</title>
    <desc>Created with Sketch.</desc>
    <defs>
        <path d="M54,20.3333333 C54,21.5672406 54.7045934,22.6444858 55.7504101,23.2207228 L55.7504101,27 L59.2495899,27 L59.2495899,23.2207228 C60.2954066,22.6444858 61,21.5672406 61,20.3333333 C61,18.4929425 59.4325053,17 57.5,17 C55.5674947,17 54,18.4929425 54,20.3333333 L54,20.3333333 Z" id="path-1"></path>
    </defs>
    <g id="Page-1" stroke="none" stroke-width="1" fill="none" fill-rule="evenodd">
        <g id="Bots_badge">
            <path d="M0,28.3840149 C0,96.9962625 56.5407654,119.621381 57.4929077,120 C58.4610077,119.621381 115,96.9962625 115,28.3840149 L57.5070923,-1.3089009e-13 L0,28.3840149 Z" id="Path" fill="#904BD1"></path>
            <path d="M88,96.2005091 L27,96.2005091 L27,71.8480402 C27,67.512979 30.0931767,64 33.9082673,64 L81.0917327,64 C84.9068233,64 88,67.512979 88,71.8480402 L88,96.2005091 Z" id="Fill-1" fill="#DDDDDD"></path>
            <path d="M86,98 L57.9706909,118 L29.1582215,99.0403305 L29,76.5719087 C29,69.0768221 32.0380775,65 35.7852094,65 L79.2147906,65 C82.9619225,65 85.7541436,69 86,75 L86,98 Z" id="Fill-3" fill="#7965C8"></path>
            <path d="M31,52.8604651 C31,38.5781877 42.8612344,27 57.5,27 C72.1354531,27 84,38.5597434 84,52.8604651 L84,57.5052125 C84,66.0625501 76.8797812,73 68.0983437,73 L46.9016562,73 C38.1193906,73 31,66.063352 31,57.5052125 L31,52.8604651 Z" id="Fill-12" fill="#DBDBDB"></path>
            <path d="M33,52.3872907 L33,52.3872907 L33,58.42836 C33,65.3715105 38.9054626,71 46.1939799,71 L68.8060201,71 C76.093717,71 82,65.3707335 82,58.42836 L82,52.3872907 C82,39.458237 71.0381029,29 57.5004102,29 C43.9676393,29 33,39.4691148 33,52.3872907" id="Fill-14" fill="#7965C8"></path>
            <path d="M57.5,58 C73.0763371,58 75,53.3379412 75,47.587288 C75,41.8366348 67.1650729,41 57.5,41 C47.8349271,41 40,41.8366348 40,47.587288 C40,53.3379412 41.9236629,58 57.5,58 M49.624877,51.058192 C51.0743918,51.058192 53.0841888,50.3451142 53.0841888,48.9076528 C53.0841888,47.4701914 51.0743918,45.851836 49.624877,45.851836 C48.1753621,45.851836 46.9998359,47.0179564 46.9998359,48.4554178 C46.9998359,49.8928792 48.1753621,51.058192 49.624877,51.058192 M65.375123,51.058192 C66.8246379,51.058192 68.0001641,49.8928792 68.0001641,48.4554178 C68.0001641,47.0179564 66.8246379,45.851836 65.375123,45.851836 C63.9256082,45.851836 61.287442,47.0179564 61.287442,48.4554178 C61.287442,49.8928792 63.9256082,51.058192 65.375123,51.058192" id="Fill-16" fill="#725FBF"></path>
            <path d="M75,45.5039987 C75,42.4375774 72.8072704,39.6780424 69.3102236,37.7593922 C66.1979093,36.0507598 62.0519853,37.7593922 57.5000002,37.7593922 C52.5435946,37.7593922 48.0687198,36.244497 44.8842169,38.229897 C41.8596775,40.1168003 40,42.680156 40,45.5039987 C40,51.3006503 41.9236629,56 57.5,56 C73.0763371,56 75,51.3006503 75,45.5039987 Z M49.624877,49.0026658 C51.0743918,49.0026658 53.6305255,48.1007293 53.6305255,46.6517699 C53.6305255,45.2028105 52.249918,44.3106423 49.624877,43.7546652 C48.2073548,43.455105 46.9998359,44.9301131 46.9998359,46.3790725 C46.9998359,47.8280319 48.1753621,49.0026658 49.624877,49.0026658 M68.0001641,46.3790725 C68.0001641,44.9301131 66.8246379,43.7546652 65.375123,43.7546652 C63.9256082,43.7546652 61.0003281,45.2028105 61.0003281,46.6517699 C61.0003281,48.1007293 63.9256082,49.0026658 65.375123,49.0026658 C66.8246379,49.0026658 68.0001641,47.8280319 68.0001641,46.3790725 Z" id="Fill-18" fill="#DDDDDD"></path>
            <path d="M57.5,93 C59.4325053,93 61,91.4332248 61,89.5 C61,87.5667752 59.4325053,86 57.5,86 C55.5674947,86 54,87.5667752 54,89.5 C54,91.4332248 55.5674947,93 57.5,93" id="Fill-24" fill="#DADADA"></path>
            <path d="M60.8900738,90 C60.9622642,89.7446016 61,89.476545 61,89.1995532 C61,87.4326136 59.4331419,86 57.5004102,86 C55.5668581,86 54,87.4326136 54,89.1995532 C54,89.476545 54.0385562,89.7446016 54.1107465,90 C54.4987695,88.6195086 55.8695652,87.6001489 57.5004102,87.6001489 C59.1312551,87.6001489 60.5012305,88.6195086 60.8900738,90" id="Fill-26" fill="#FFFFFF"></path>
            <mask id="mask-2" fill="white">
                <use xlink:href="#path-1"></use>
            </mask>
            <use id="Clip-7" fill="#D8D8D8" xlink:href="#path-1"></use>
            <path d="M57.5070923,0.00619172226 L57.5070923,0 L57.4929077,0 L57.4929077,0.00619172226 L0,28.3872775 C0,96.9924446 56.5407654,119.615229 57.4929077,119.993808 L57.4929077,120 L57.5,119.996462 L57.5070923,120 L57.5070923,119.993808 C58.4610077,119.615229 115,96.9924446 115,28.3872775 L57.5070923,0.00619172226 M57.5070535,114.996467 L57.5070535,115 L57.4911831,115 L57.4911831,114.996467 C56.623604,114.649378 5,93.9061421 5,31.0246487 L57.4911831,5.00618226 L57.4911831,5 L57.5,5.00264954 L57.5070535,5 L57.5070535,5.00618226 L110,31.0246487 C110,93.9061421 58.376396,114.649378 57.5070535,114.996467" id="Fill-20" fill="#5C41A1"></path>
        </g>
    </g>
</svg>