<?xml version="1.0" encoding="UTF-8"?>
<svg width="115px" height="120px" viewBox="0 0 115 120" version="1.1" xmlns="http://www.w3.org/2000/svg" xmlns:xlink="http://www.w3.org/1999/xlink">
    <!-- Generator: Sketch 41 (35326) - http://www.bohemiancoding.com/sketch -->
    <title>Challenge_badge</title>
    <desc>Created with Sketch.</desc>
    <defs></defs>
    <g id="Page-1" stroke="none" stroke-width="1" fill="none" fill-rule="evenodd">
        <g id="Challenge_badge" transform="translate(57.500000, 60.000000) scale(-1, 1) translate(-57.500000, -60.000000) ">
            <path d="M0,28.151594 C0,96.1832971 56.0486744,118.617558 56.99253,118.992983 C57.9522044,118.617558 114,96.1832971 114,28.151594 L57.0065912,0.00701728522 L0,28.151594 Z" id="Fill-1" fill="#3498DB"></path>
            <path d="M57.506649,0.00707625401 L57.506649,0 L57.4924645,0 L57.4924645,0.00707625401 L0,28.388162 C0,96.9915601 56.5403295,119.614344 57.4924645,119.992924 L57.4924645,120 C57.4924645,120 57.4960106,119.996462 57.4995567,119.996462 C57.5031029,119.996462 57.506649,120 57.506649,120 L57.506649,119.992924 C58.4605571,119.614344 115,96.9915601 115,28.388162 L57.506649,0.00707625401 L57.506649,0.00707625401 Z M57.5064893,114.996533 L57.5064893,115 L57.4995674,115 L57.4917802,115 L57.4917802,114.996533 C56.6230748,114.648116 5,93.9060567 5,31.024646 L57.4917802,5.00520025 L57.4917802,5 L57.4995674,5.00346683 L57.5064893,5 L57.5064893,5.00520025 L110,31.024646 C110,93.9060567 58.3769252,114.648116 57.5064893,114.996533 L57.5064893,114.996533 Z" id="Fill-3" fill="#1478BA"></path>
            <path d="M57.1503442,84.6921114 C59.9049947,84.1903168 62.9367656,83.4246674 65.8446964,82.257451 C66.1642832,82.136112 66.5333088,81.9837928 66.9473591,81.7970511 C66.5668566,81.5552336 66.0486316,81.1318379 65.7590613,80.4640429 C65.2576102,79.3126129 65.8464621,78.3875104 65.8464621,78.3875104 C65.8464621,78.3875104 66.964133,78.6904277 67.4770609,79.9003758 C67.7436775,80.528585 67.7110125,81.0853676 67.6227289,81.4777832 C68.1665561,81.2092883 68.7642364,80.8865781 69.4034099,80.501047 C69.0661664,80.2471817 68.5708952,79.7704311 68.36696,79.0484209 C68.0358963,77.8883853 68.717446,77.0347093 68.717446,77.0347093 C68.717446,77.0347093 69.7450676,77.4245432 70.0787797,78.6413757 C70.2385731,79.2274175 70.1617664,79.7360087 70.0417006,80.1043286 C70.579348,79.7583833 71.1373006,79.3737127 71.7146756,78.9391297 C71.3518298,78.6835432 70.6570376,78.0871748 70.4151404,77.115602 C70.0761312,75.7576375 70.8883407,74.7800407 70.8883407,74.7800407 C70.8883407,74.7800407 72.0545676,75.2499068 72.3953424,76.6732739 C72.5816209,77.45036 72.4209447,78.0992226 72.2417289,78.531224 C72.9100361,78.0002582 73.5951171,77.4056109 74.286378,76.7421187 C73.844077,76.5467715 73.0813063,76.1139095 72.6151687,75.2860503 C71.9212593,74.0563093 72.451844,72.9616764 72.451844,72.9616764 C72.451844,72.9616764 73.7169485,73.1854221 74.4338117,74.4805657 C74.8125485,75.167293 74.8416821,75.8023866 74.7869462,76.2490175 C75.3731496,75.6603941 75.959353,75.0209977 76.5411421,74.3265253 C76.0441053,74.1896962 75.1798084,73.8601015 74.539752,73.091621 C73.5801089,71.9410516 73.9076412,70.751757 73.9076412,70.751757 C73.9076412,70.751757 75.2583809,70.7879005 76.2533375,72.0047331 C76.7998132,72.6690858 76.9472469,73.332578 76.9746148,73.7972806 C77.0540701,73.6974556 77.1335254,73.6010728 77.2120978,73.5003873 C77.5316846,73.0933421 77.8133094,72.678552 78.0693319,72.2603196 C77.5493413,72.1174665 76.6638564,71.7741029 76.0070261,70.9918534 C75.004124,69.8016982 75.333422,68.5556066 75.333422,68.5556066 C75.333422,68.5556066 76.730952,68.5831445 77.7718161,69.8430051 C78.2591418,70.4316285 78.4427717,71.0236941 78.5072188,71.4866757 C78.8347511,70.8610482 79.1013677,70.2302573 79.3141313,69.6063509 C78.7835466,69.5134104 77.7921213,69.2457761 77.0037484,68.4695505 C75.8587096,67.3396345 76.061762,66.0496543 76.061762,66.0496543 C76.061762,66.0496543 77.4875428,65.9618772 78.6784891,67.1589168 C79.2170193,67.6976277 79.4659791,68.2561315 79.5869277,68.7122286 C79.7855659,67.9781704 79.919757,67.2578813 80.000978,66.571154 C79.4412597,66.5332893 78.4604285,66.3689223 77.5934831,65.7243625 C76.2745256,64.744184 76.2771741,63.4412954 76.2771741,63.4412954 C76.2771741,63.4412954 77.6844153,63.185709 79.0634057,64.2287083 C79.5701538,64.6107972 79.8923891,65.0333324 80.0989728,65.4145607 C80.1325206,64.7278334 80.1219266,64.0901581 80.0866131,63.520467 C79.5215978,63.5015347 78.5990338,63.3733111 77.7470967,62.8122257 C76.3813488,61.91294 76.2921823,60.6289837 76.2921823,60.6289837 C76.2921823,60.6289837 77.6579302,60.3036918 79.0881251,61.2597745 C79.4439082,61.4981498 79.7175875,61.7580391 79.9294682,62.0153467 C79.8482473,61.4757752 79.7617293,61.096268 79.7184703,60.9241559 C79.2461529,60.8114225 78.4127553,60.5248559 77.7647534,59.79424 C76.8051102,58.7116549 77.0434761,57.5344081 77.0434761,57.5344081 C77.0434761,57.5344081 78.3041664,57.5128941 79.3044201,58.6583001 C79.5048239,58.8863486 79.6451949,59.1169789 79.7599636,59.3415852 C79.774089,59.1014888 79.8199965,58.8459023 79.9312339,58.5799891 C80.4176768,57.4199535 81.6430537,57.0542153 81.6430537,57.0542153 C81.6430537,57.0542153 82.3440258,57.9139153 81.8275665,59.1238633 C81.447064,60.0188463 80.6631053,60.4766645 80.2914311,60.6513583 C80.3046737,60.7029919 80.4035514,61.0790568 80.5041947,61.699521 C80.5774701,61.4490978 80.6781135,61.1917903 80.8423211,60.9327615 C81.6933753,59.5911477 83.2551129,59.3579358 83.2551129,59.3579358 C83.2551129,59.3579358 83.9031148,60.5403459 83.0070359,61.934454 C82.2901727,63.0480193 81.1221802,63.4524827 80.6993016,63.5677978 C80.7231381,64.0230343 80.7319665,64.5169961 80.7151926,65.0436591 C80.8414382,64.7183672 81.0277167,64.3767247 81.3243497,64.0514328 C82.3978788,62.8733255 83.9340141,62.8827917 83.9340141,62.8827917 C83.9340141,62.8827917 84.3251106,64.1297438 83.2030256,65.3491581 C82.2327884,66.4050658 80.9173621,66.5788991 80.5933612,66.606437 C80.5218514,67.1778492 80.4167939,67.7716359 80.2711259,68.3783311 C80.4883037,68.0375491 80.7893509,67.6829982 81.2290034,67.3835231 C82.5594378,66.479074 83.9852186,66.8172743 83.9852186,66.8172743 C83.9852186,66.8172743 84.0037582,68.1020912 82.6203536,69.0357993 C81.4779633,69.8068615 80.2675946,69.7431801 79.8862092,69.6984309 C79.7281815,70.1579702 79.5436687,70.6218123 79.3282566,71.0847939 C79.5092381,70.9281719 79.7069935,70.7749921 79.9506563,70.6398841 C81.317287,69.8782881 82.6062282,70.2646797 82.6062282,70.2646797 C82.6062282,70.2646797 82.4517318,71.4410659 81.0277167,72.2276183 C79.9082802,72.8480824 78.8400481,72.7671897 78.4365919,72.7069505 C78.2194141,73.0434296 77.9836968,73.3781877 77.7267914,73.7077823 C78.1258335,73.453917 78.6308159,73.2164023 79.239973,73.0967844 C80.9147136,72.7663291 81.991774,73.5924672 81.991774,73.5924672 C81.991774,73.5924672 81.3128729,74.7550845 79.5772165,75.0958664 C78.2653216,75.3540346 77.2783105,74.9633401 76.8704401,74.755945 C76.3266129,75.3970626 75.7801372,75.9908494 75.2354271,76.5407475 C75.7986767,76.2929061 76.6488482,76.0261324 77.6499847,76.0846505 C79.434197,76.19136 80.2137415,77.2515705 80.2137415,77.2515705 C80.2137415,77.2515705 79.1313841,78.1930237 77.2791934,78.0880353 C75.8737178,78.0071427 75.0217807,77.3840968 74.6871857,77.0811795 C74.0365353,77.7076676 73.3894162,78.2721953 72.7573054,78.779926 C73.3099609,78.5381085 74.1045137,78.2928487 75.0412031,78.3272712 C76.8271811,78.3918132 77.648219,79.4115774 77.648219,79.4115774 C77.648219,79.4115774 76.6029407,80.3650785 74.7516328,80.301397 C73.2419825,80.2514845 72.3529663,79.576805 72.0669273,79.3212186 C71.4304023,79.8014113 70.8150653,80.2222254 70.2270963,80.593127 C70.8018228,80.422736 71.6060867,80.2807435 72.4995171,80.4158515 C74.2316421,80.6826253 74.8734642,81.7841427 74.8734642,81.7841427 C74.8734642,81.7841427 73.7054717,82.6042569 71.9044854,82.3349015 C70.4557509,82.1189008 69.6929802,81.3693526 69.440489,81.0724592 C68.9575775,81.3555836 68.4976198,81.6008433 68.0694441,81.8159835 C68.0385448,81.8374975 68.0085284,81.8615932 67.978512,81.8822466 C68.5594183,81.8426609 69.3062979,81.8779438 70.055826,82.1645105 C71.6246263,82.7626 71.923025,83.9648031 71.923025,83.9648031 C71.923025,83.9648031 70.579348,84.5396575 68.9425693,83.9234962 C67.8354925,83.5095666 67.2978451,82.8211182 67.0568308,82.4080491 C64.3500578,83.4867832 61.7857183,84.3531821 59.3419859,85.0360245 C61.6383911,85.3523824 63.6063613,85.488478 64.9503831,85.5456527 C65.2779154,85.7427211 65.4491857,86.7934655 65.2867438,86.9466452 C62.7034913,86.7266315 59.9919684,86.3006338 57.1124469,85.616832 C54.1490941,86.3319399 51.3635619,86.7742754 48.7132562,87 C48.5508143,86.8476808 48.7229674,85.7960758 49.0504997,85.599868 C50.4442964,85.5401961 52.5096295,85.3959118 54.9165907,85.0537062 C52.3954706,84.3599768 49.745795,83.4706258 46.9431692,82.3538338 C46.7030377,82.7677634 46.1645075,83.4553513 45.0574307,83.8701414 C43.420652,84.4863027 42.076975,83.9114483 42.076975,83.9114483 C42.076975,83.9114483 42.3753737,82.7083847 43.9450568,82.1111557 C44.6937021,81.8245891 45.4405817,81.7893061 46.021488,81.8288919 C45.9914716,81.8073779 45.9614552,81.7841427 45.9314387,81.7626287 C45.5023802,81.5474886 45.0433053,81.3013683 44.559511,81.0182439 C44.3079026,81.3151373 43.5442491,82.0646855 42.0955146,82.2815467 C40.2954112,82.5509022 39.1274186,81.7299274 39.1274186,81.7299274 C39.1274186,81.7299274 39.7683579,80.62841 41.5004829,80.3624968 C42.3939133,80.2265282 43.1981772,80.3685207 43.7729037,80.5397722 C43.1849347,80.1680101 42.5695977,79.7480566 41.9330727,79.2670032 C41.6470337,79.5225897 40.7580175,80.1972692 39.2483672,80.2480422 C37.3979421,80.3108631 36.351781,79.3582227 36.351781,79.3582227 C36.351781,79.3582227 37.1737017,78.3375979 38.9587969,78.2739164 C39.8963691,78.239494 40.6900391,78.4847537 41.2426946,78.7257107 C40.6105838,78.21798 39.9643475,77.6534523 39.3128143,77.0278248 C38.9791021,77.3298815 38.127165,77.9537879 36.7208066,78.0346806 C34.8686159,78.139669 33.7862585,77.1982158 33.7862585,77.1982158 C33.7862585,77.1982158 34.565803,76.1371447 36.3500153,76.0304352 C37.3520346,75.971917 38.2022061,76.2395514 38.7645729,76.4873928 C38.2198628,75.9366341 37.6733871,75.3437079 37.1295599,74.7017297 C36.7216895,74.9099854 35.7346784,75.3006798 34.4227835,75.0425117 C32.68801,74.7008692 32.008226,73.5391125 32.008226,73.5391125 C32.008226,73.5391125 33.0852864,72.7129744 34.760027,73.0434296 C35.3700669,73.162187 35.8741665,73.4005622 36.2732086,73.6544276 C36.0163032,73.3248329 35.7814687,72.9892143 35.5634081,72.6535957 C35.1599519,72.7138349 34.0917198,72.7947276 32.9722833,72.1742635 C31.549151,71.3877112 31.3937718,70.211325 31.3937718,70.211325 C31.3937718,70.211325 32.682713,69.8249333 34.0493437,70.5856688 C34.2930065,70.7207768 34.4907619,70.8739566 34.6726262,71.0314391 C34.4572141,70.5684576 34.2727013,70.1046155 34.1137908,69.6450762 C33.7324054,69.6889647 32.5220367,69.7526462 31.3796464,68.981584 C29.9971247,68.0478758 30.0147814,66.7639196 30.0147814,66.7639196 C30.0147814,66.7639196 31.4405622,66.4248587 32.7709966,67.3293078 C33.2106491,67.6296434 33.5116963,67.9841944 33.7288741,68.3241158 C33.5832061,67.7174206 33.4781486,67.1244944 33.4066388,66.5530822 C33.0826379,66.5255443 31.7680945,66.3508505 30.7969744,65.2958033 C29.6748894,64.0763891 30.0659859,62.8294369 30.0659859,62.8294369 C30.0659859,62.8294369 31.6021212,62.8199707 32.6756503,63.9980781 C32.9722833,64.32337 33.1594446,64.6641519 33.2848074,64.9894438 C33.2680335,64.4627808 33.2777447,63.9696796 33.3006984,63.5135825 C32.8778198,63.399128 31.7098273,62.9946645 30.9938469,61.8802387 C30.0968852,60.4869912 30.7448871,59.3045811 30.7448871,59.3045811 C30.7448871,59.3045811 32.3066247,59.5369324 33.1576789,60.8794068 C33.3218865,61.1384355 33.4234127,61.3957431 33.4966881,61.6461662 C33.5964486,61.0257021 33.6953263,60.6487766 33.7094517,60.5980035 C33.3368947,60.4233097 32.552936,59.964631 32.1724335,59.069648 C31.6568571,57.8597 32.3578292,57 32.3578292,57 C32.3578292,57 33.5823232,57.3665988 34.0687661,58.5266343 C34.1800035,58.791687 34.2267938,59.048134 34.2400364,59.2873698 C34.3548051,59.0636241 34.4951761,58.8329939 34.6955799,58.6040848 C35.6967164,57.4586788 36.9574068,57.4810533 36.9574068,57.4810533 C36.9574068,57.4810533 37.1948898,58.6583001 36.2352466,59.7408852 C35.5881275,60.4706405 34.7538471,60.7572072 34.2815297,60.8699406 C34.2382707,61.0420527 34.1526356,61.4224205 34.0705318,61.9619919 C34.2824125,61.7046843 34.5560918,61.4439345 34.9118749,61.2064198 C36.3420698,60.2503371 37.7078177,60.5747684 37.7078177,60.5747684 C37.7078177,60.5747684 37.6195341,61.8595852 36.2537862,62.7588709 C35.4018491,63.3199564 34.4784022,63.4473194 33.9133869,63.4671122 C33.8780734,64.0368033 33.8674794,64.6736181 33.90191,65.3603454 C34.1076109,64.9799776 34.4298462,64.5565819 34.9365943,64.174493 C36.3155847,63.1314936 37.7237088,63.3870801 37.7237088,63.3870801 C37.7237088,63.3870801 37.7263573,64.6908293 36.4065169,65.6701472 C35.5395715,66.314707 34.5596231,66.4799346 33.999022,66.5177993 C34.0811258,67.2045265 34.2144341,67.9239551 34.4139551,68.6580133 C34.5340209,68.2027767 34.7838636,67.6434124 35.3215109,67.1047015 C36.5133401,65.9085224 37.938238,65.995439 37.938238,65.995439 C37.938238,65.995439 38.1412904,67.2854192 36.9962516,68.4161957 C36.2078787,69.1915608 35.2164534,69.4600556 34.6858687,69.5521356 C34.8986323,70.1769026 35.1652489,70.8068329 35.4927812,71.4333209 C35.5581111,70.9703393 35.7417411,70.3774132 36.2281839,69.7887898 C37.269048,68.5297897 38.666578,68.5013912 38.666578,68.5013912 C38.666578,68.5013912 38.995876,69.7483434 37.9929739,70.937638 C37.3361436,71.7207481 36.4506587,72.0632512 35.9306681,72.2061042 C36.1866906,72.6243367 36.4691983,73.0399874 36.7879022,73.4461719 C36.8664746,73.5477181 36.9468127,73.6441009 37.026268,73.7430653 C37.0527531,73.2783626 37.2001868,72.615731 37.7466625,71.9505178 C38.7416191,70.7336852 40.0923588,70.6975417 40.0923588,70.6975417 C40.0923588,70.6975417 40.4198911,71.8876969 39.460248,73.0382663 C38.8201916,73.8058862 37.9558947,74.1354809 37.4588579,74.27231 C38.040647,74.9667824 38.6268504,75.6061788 39.2130538,76.1956628 C39.1592007,75.7481713 39.1874515,75.1139382 39.5670712,74.4263504 C40.2830515,73.1312068 41.5490389,72.9083216 41.5490389,72.9083216 C41.5490389,72.9083216 42.0787407,74.0029546 41.3848313,75.2326956 C40.9186937,76.0605548 40.1568059,76.4925562 39.7145048,76.6879034 C40.4048829,77.3522561 41.0899639,77.9469034 41.7582711,78.4770087 C41.5790553,78.0450073 41.4183791,77.3961447 41.6046576,76.6199191 C41.9454324,75.196552 43.1116593,74.726686 43.1116593,74.726686 C43.1116593,74.726686 43.9238688,75.7042827 43.5848596,77.0622472 C43.3429624,78.03382 42.649053,78.6301885 42.2862073,78.8857749 C42.8626994,79.320358 43.420652,79.7050285 43.9582994,80.0501133 C43.8382336,79.682654 43.7623097,79.1740627 43.9212203,78.5871604 C44.2549324,77.3703279 45.282554,76.9813545 45.282554,76.9813545 C45.282554,76.9813545 45.9649865,77.83417 45.6339229,78.9950661 C45.4291048,79.7170764 44.9347164,80.1929664 44.5965901,80.4468317 C45.2357636,80.8323628 45.8334439,81.155073 46.3772711,81.4235679 C46.2889875,81.0320129 46.2572053,80.4743696 46.5229391,79.847021 C47.0367499,78.6370729 48.1535379,78.3332951 48.1535379,78.3332951 C48.1535379,78.3332951 48.7423898,79.2583976 48.2418216,80.4098276 C47.9522512,81.0784831 47.4340263,81.5018789 47.0526409,81.7428358 C47.4666912,81.930438 47.8365997,82.0827572 48.1553036,82.2032357 C51.1694061,83.4130684 54.3165569,84.1916638 57.1503442,84.6921114 Z" id="Combined-Shape" fill="#FFFFFF"></path>
            <polyline id="Fill-18" fill="#FFFFFF" points="81.1362023 41.8809166 85 36 63.435341 39.6854322 56.9991356 63.9961102 50.5629303 39.6854322 29 36 32.862069 41.8809166 46.2980582 43.6846289 47.9663199 48.9172146 39.3786621 48.0738642 42.1939617 52.7777308 49.4072485 53.4399298 56.9896274 77 64.5918871 53.4399298 71.8043096 52.7777308 74.6196092 48.0738642 66.0302226 48.9172146 67.6993486 43.6846289 81.1362023 41.8809166"></polyline>
        </g>
    </g>
</svg>