<?xml version="1.0" encoding="UTF-8"?>
<svg width="115px" height="120px" viewBox="0 0 115 120" version="1.1" xmlns="http://www.w3.org/2000/svg" xmlns:xlink="http://www.w3.org/1999/xlink">
    <!-- Generator: Sketch 41 (35326) - http://www.bohemiancoding.com/sketch -->
    <title>H2H_Badge</title>
    <desc>Created with Sketch.</desc>
    <defs></defs>
    <g id="Page-1" stroke="none" stroke-width="1" fill="none" fill-rule="evenodd">
        <g id="H2H_Badge">
            <path d="M57.506969,1.00608853 L57.506969,1 L57.493031,1 L57.493031,1.00608853 L1,28.9141562 C1,96.3759039 56.5574477,118.621642 57.493031,118.993911 L57.493031,119 L57.5,118.996521 L57.506969,119 L57.506969,118.993911 C58.4442945,118.621642 114,96.3759039 114,28.9141562 L57.506969,1.00608853" id="Fill-1" fill="#00CD79"></path>
            <path d="M57.4354295,79.3950802 L114.86466,30.422152 C114.869088,29.9917421 114.880599,29.5674684 114.880599,29.1326756 L113.171607,28.2964006 L57.4354295,75.8255712 L57.4354295,79.3950802 Z M57.4354295,86.5323452 L114.558282,37.8215199 C114.648601,36.5890224 114.716784,35.3372397 114.769913,34.0714315 L57.4354295,82.9628361 L57.4354295,86.5323452 Z M57.4354295,72.8205915 L110.933978,27.1997759 L108.275742,25.8980271 L57.4354295,69.251959 L57.4354295,72.8205915 Z M57.4354295,66.0585107 L105.89732,24.7321511 L103.239084,23.431279 L57.4354295,62.4890016 L57.4354295,66.0585107 Z M57.4354295,107.00618 L109.775759,62.3732906 C110.290228,60.8103155 110.772819,59.2122764 111.219105,57.5739138 L57.4354295,103.437547 L57.4354295,107.00618 Z M57.4354295,58.9212457 L100.580848,22.127777 L97.9226123,20.8269048 L57.4354295,55.3517366 L57.4354295,58.9212457 Z M57.4354295,114.919234 L104.825879,74.5062904 C105.74236,72.6443952 106.611024,70.7141253 107.430986,68.7172339 L57.4354295,111.351478 L57.4354295,114.919234 Z M57.4354295,93.6696102 L113.686076,45.7021404 C113.879997,44.3837362 114.057095,43.0504299 114.205857,41.6899491 L57.4354295,90.1001011 L57.4354295,93.6696102 Z M57.4354295,100.431691 L112.171005,53.7563274 C112.49775,52.3362378 112.801473,50.8916035 113.074203,49.4171648 L57.4354295,96.8630585 L57.4354295,100.431691 Z M57.4354295,10.460251 L64.484802,4.44853849 L61.8265661,3.14678972 L57.4354295,6.8916185 L57.4354295,10.460251 Z M57.4354295,17.2223318 L69.5205742,6.91616326 L66.8641092,5.61441449 L57.4354295,13.6536993 L57.4354295,17.2223318 Z M57.4354295,23.7959439 L74.4182101,9.31453675 L71.7599741,8.01191138 L57.4354295,20.2273114 L57.4354295,23.7959439 Z M57.4354295,38.6350033 L85.4708754,14.7284091 L82.8126395,13.4257837 L57.4354295,35.0663708 L57.4354295,38.6350033 Z M57.4354295,45.3962075 L90.507533,17.1951572 L87.8492971,15.8925319 L57.4354295,41.8284516 L57.4354295,45.3962075 Z M57.4354295,31.4977383 L80.1544035,12.1240349 L77.4961675,10.8214096 L57.4354295,27.9291058 L57.4354295,31.4977383 Z M57.4354295,51.9724494 L95.4042835,19.5935307 L92.7460475,18.291782 L57.4354295,48.4020638 L57.4354295,51.9724494 Z" id="Combined-Shape" fill="#00AF67"></path>
            <path d="M66.7153471,65.4256066 L66.2008784,57.6817355 L63.8321971,52.9928101 C63.7330224,53.2628024 63.6294203,53.5319182 63.4948261,53.7922679 C63.0441125,54.660977 62.2834781,55.4323837 61.6760331,56.2467437 C62.664238,60.2089689 59.5765402,64.1448962 59.9254226,66.4477204 C58.3767035,68.7128509 55.2039989,72.8766938 55.2039989,72.8766938 L77.0463395,105.456354 L93.4278735,86.9022698 L66.7153471,65.4256066" id="Fill-22" fill="#007BAB"></path>
            <path d="M67.826635,67.9011207 C65.395084,69.8112289 59.3100082,72.767119 58.2013769,73.3614528 L56.8713734,75.3644803 L75.9633872,103.841659 C77.9070341,102.92912 80.5599572,101.219753 80.5599572,101.219753 L62.2967604,76.8941447 L63.7356789,74.2643492 L72.3691901,81.8250113 C72.3691901,81.8250113 66.3921439,75.2505225 65.5066556,74.0451996 C66.6214854,72.3901816 67.449417,69.4316617 67.826635,67.9011207" id="Fill-28" fill="#0064A0"></path>
            <path d="M70.6035264,64.6533233 L69.6897024,62.85279 L69.9057616,61.3923769 L69.3328506,59.235068 L67.6034919,58.3339247 L67.2475256,56.4720295 L65.9635675,55.6287418 L66.5116848,54.3427718 L65.5163959,51.2974686 L62.7766951,50.1701629 L61.0136878,51.3965242 L59.6075323,52.9086566 L55.3536464,48.6966009 L45.9825234,56.3668377 L47.0158883,65.4256066 L20.3033619,86.9022698 L36.684896,105.456354 L58.2013769,73.3614528 C59.4986173,72.6663102 67.6123468,68.7356425 68.7094669,67.0324116 C68.8608854,66.7974832 70.6035264,64.6533233 70.6035264,64.6533233" id="Fill-29" fill="#34587A"></path>
            <path d="M56.865175,75.3548378 L38.1583485,103.257845 C47.1681923,110.475757 54.9870542,114.015461 56.9678916,114.853489 C54.9967946,114.018968 47.2381459,110.502931 38.2796604,103.350764 L56.8713734,75.3644803 L56.865175,75.3548378" id="Fill-31" fill="#00A871"></path>
            <path d="M60.4221816,52.4072423 C60.2929003,52.5597704 60.1742449,52.7228178 60.0794976,52.9051502 C60.0254828,53.0094655 60.0006891,53.1207935 59.9865213,53.2321215 L59.8545836,53.0795933 C59.8545836,56.0021727 54.5416536,58.9247521 54.5416536,58.9247521 L53.06643,57.4625858 L53.5888682,56.4807955 C53.3409314,56.2712885 53.0079878,55.9618492 52.6723877,55.6401376 L52.881363,62.1637836 L52.2252161,64.3044371 L50.3860569,64.8645835 L48.9657336,66.6747594 L46.8582714,66.1619493 L45.3166362,67.4698343 C45.5017032,67.5557409 45.7717772,67.5978177 46.1011788,67.5978177 C47.7738663,67.5978177 50.9988148,66.5196015 52.6670748,64.6217658 C53.7092946,63.4374812 53.331191,60.3851652 53.331191,60.3851652 L59.1603607,56.440472 C59.1603607,56.440472 59.9608422,53.6897059 60.4221816,52.4072423 M62.7766951,50.1701629 L61.5175306,51.0458848 C61.4325238,51.2413663 61.3165248,51.4149328 61.1837015,51.5771035 C61.9965798,51.2720472 62.5836586,51.1510766 63.0414561,51.1510766 C63.9251734,51.1510766 64.3218722,51.6042781 64.9160349,52.0574795 C65.8750187,52.787686 65.0639114,55.8557808 65.0639114,56.1476881 C65.0639114,56.440472 65.1374069,58.2664267 65.8015232,58.6319682 C66.4656394,58.9975098 67.4990043,59.8732317 67.4990043,59.8732317 C67.4990043,59.8732317 67.7203764,61.700063 67.9417485,61.7728206 C68.1631206,61.8455783 69.491353,64.1834665 69.491353,64.1834665 C69.491353,64.1834665 68.6793602,64.9136731 67.3511278,66.2285708 C64.5379313,69.0144008 60.6125616,70.2504047 58.6237548,70.2504047 C58.0543858,70.2504047 57.6444047,70.1495959 57.4637651,69.9541144 C61.3377765,68.7435319 61.5839423,68.1509513 62.9821283,67.2086079 C60.9224825,68.3359136 53.331191,70.4660479 53.331191,70.4660479 L32.1210891,97.9789684 L32.0351967,97.8974447 C31.6942837,98.2813949 31.3533707,98.669728 31.027511,99.0492952 L36.684896,105.456354 L58.2013769,73.3614528 C59.4986173,72.6663102 67.6123468,68.7356425 68.7094669,67.0324116 C68.8608854,66.7974832 70.6035264,64.6533233 70.6035264,64.6533233 L70.5840456,64.6138764 L69.6897024,62.85279 L69.9057616,61.3923769 L69.3328506,59.235068 L69.2398744,59.1859785 L67.6034919,58.3339247 L67.2475256,56.4720295 L65.9635675,55.6287418 L66.5116848,54.3427718 L65.5163959,51.2974686 L62.7766951,50.1701629" id="Fill-38" fill="#1B4872"></path>
            <polyline id="Fill-40" fill="#007BAB" points="50.830572 51.0301061 48.9728175 49.9492601 46.3340623 51.292209 45.5911376 54.4085167 46.242857 55.6453971 45.0315089 56.5886171 44.8296176 58.4733039 43.1799529 59.5094433 42.7841396 61.7053226 43.1197396 63.1446973 42.3564487 65.0118521 45.3166362 67.4698343 46.8582714 66.1619493 48.9657336 66.6747594 50.3860569 64.8645835 52.2252161 64.3044371 52.881363 62.1637836 52.5758695 52.6263919 50.830572 51.0301061"></polyline>
            <path d="M59.9865213,53.2321215 C60.0006891,53.1207935 60.0254828,53.0094655 60.0794976,52.9051502 C60.4655705,52.1582883 61.2598535,51.7410274 61.5511792,50.9617314 L58.0827214,48.039152 L53.06643,57.4625858 L54.5416536,58.9247521 C54.5416536,58.9247521 59.8545836,56.0021727 59.8545836,53.0795933 L59.9865213,53.2321215" id="Fill-41" fill="#007BAB"></path>
            <path d="M80.6998643,44.2040336 C84.3055728,53.9746004 89.0013174,59.9828065 89.0013174,59.9828065 L110.031665,41 L110.031665,55.3806644 L111.249212,48.2583016 L113.24156,31.6029301 L111.139411,29.5210087 L89.9974918,18.3443779 L85.127306,17.1390549 L85.2388775,16.0433068 C85.2388775,16.0433068 73.9489013,25.9050399 80.6998643,44.2040336 Z" id="Fill-42" fill="#007BAB"></path>
            <path d="M99.7015583,23.4172534 L93.2808825,42.3622499 L96.8228358,38.5732506 L91.95265,57.0979209 L113,42.3622499 L110,30 L99.7015583,23.4172534 Z M30.1057177,16.0433068 C30.1057177,16.0433068 41.3956939,25.9050399 34.6438454,44.2040336 C31.0390224,53.9746004 26.3423923,59.9828065 26.3423923,59.9828065 L8.41125363,42.1221121 L5.31204448,55.3806644 L4.09449803,48.2583016 L2.10214929,31.6029301 L4.20518407,29.5210087 L25.3462179,18.3443779 L30.2164037,17.1390549 L30.1057177,16.0433068 Z" id="Combined-Shape" fill="#34587A"></path>
            <path d="M33.2049268,38.6157181 L23.8515136,31.9868803 C23.8515136,31.9868803 27.0826605,38.6797098 30.7698339,39.1092431 C31.7102225,39.2188179 33.2049268,38.6157181 33.2049268,38.6157181 Z M82.1387828,38.6157181 L91.4921961,31.9868803 C91.4921961,31.9868803 88.2619346,38.6797098 84.5747612,39.1092431 C83.6334871,39.2188179 82.1387828,38.6157181 82.1387828,38.6157181 Z" id="Combined-Shape" fill="#FFFFFF"></path>
            <polyline id="Fill-47" fill="#007BAB" points="15.6430368 27.8773865 22.0628272 44.3136084 18.5208739 41.026364 23.3910597 57.0979209 8.41125363 42.1221121 15.6430368 27.8773865"></polyline>
            <path d="M51.7213733,51.8453427 L51.8922725,53.1164105 C51.8922725,53.1164105 51.8922725,58.6503768 51.6709004,59.2526 C51.6540762,59.2990597 51.6124582,59.320098 51.5513595,59.320098 C50.8110913,59.320098 47.1327728,56.2397309 47.1327728,56.2397309 L52.0029586,61.7184715 C52.0029586,61.7184715 51.7266862,63.0333693 51.173256,63.3620937 C51.1528898,63.3734895 51.1263251,63.3796257 51.0944475,63.3796257 C50.2505772,63.3796257 45.4724821,59.3621748 45.4724821,59.3621748 L49.9557095,64.4578418 C49.9557095,64.4578418 49.6670403,65.3546021 48.6992016,65.3546021 C48.5451266,65.3546021 48.3742274,65.3318105 48.1847329,65.2792146 C47.1053226,64.9802945 44.2815003,61.5229901 43.0887476,60.0126109 L42.7841396,61.7053226 L43.1197396,63.1446973 L43.0852056,63.2288507 C44.0503879,64.1352536 46.2472844,65.8823144 46.2472844,65.8823144 L45.029738,66.7036872 L42.5211495,64.6094934 L42.3564487,65.0118521 L45.3166362,67.4698343 L46.8582714,66.1619493 L48.9657336,66.6747594 L50.3860569,64.8645835 L52.2252161,64.3044371 L52.881363,62.1637836 L52.5758695,52.6263919 L51.7213733,51.8453427" id="Fill-49" fill="#0064A0"></path>
            <path d="M57.5070923,0.00619172226 L57.5070923,0 L57.4929077,0 L57.4929077,0.00619172226 L0,28.3872775 C0,96.9924446 56.5407654,119.615229 57.4929077,119.993808 L57.4929077,120 L57.5,119.996462 L57.5070923,120 L57.5070923,119.993808 C58.4610077,119.615229 115,96.9924446 115,28.3872775 L57.5070923,0.00619172226 M57.5070535,114.996467 L57.5070535,115 L57.4911831,115 L57.4911831,114.996467 C56.623604,114.649378 5,93.9061421 5,31.0246487 L57.4911831,5.00618226 L57.4911831,5 L57.5,5.00264954 L57.5070535,5 L57.5070535,5.00618226 L110,31.0246487 C110,93.9061421 58.376396,114.649378 57.5070535,114.996467" id="Fill-20" fill="#34587A"></path>
        </g>
    </g>
</svg>