<?xml version="1.0" encoding="UTF-8"?>
<svg width="115px" height="120px" viewBox="0 0 115 120" version="1.1" xmlns="http://www.w3.org/2000/svg" xmlns:xlink="http://www.w3.org/1999/xlink">
    <!-- Generator: Sketch 41 (35326) - http://www.bohemiancoding.com/sketch -->
    <title>Challenges_badge</title>
    <desc>Created with Sketch.</desc>
    <defs></defs>
    <g id="Page-1" stroke="none" stroke-width="1" fill="none" fill-rule="evenodd">
        <g id="Challenges_badge">
            <path d="M57.5074045,1.00698957 L57.5074045,1 L57.4934666,1 L57.4934666,1.00698957 L1,29.0404067 C1,96.8042862 56.5578905,119.149941 57.4934666,119.523883 L57.4934666,119.529999 L57.5004356,119.527378 L57.5074045,119.529999 L57.5074045,119.523883 C58.4447228,119.149941 114,96.8042862 114,29.0404067 L57.5074045,1.00698957" id="Fill-1" fill="#E4416E"></path>
            <path d="M57.5068874,0.00549744216 L57.5068874,0 L57.4931126,0 L57.4931126,0.00549744216 L3.55271368e-14,28.3869588 C3.55271368e-14,96.9922883 56.5408172,119.615179 57.4931126,119.994503 L57.4931126,120 L57.5004592,119.996335 L57.5068874,120 L57.5068874,119.994503 C58.4619377,119.615179 115,96.9922883 115,28.3869588 L57.5068874,0.00549744216 L57.5068874,0.00549744216 Z M57.5061851,114.99646 L57.5061851,115 L57.4911641,115 L57.4911641,114.99646 C56.6234832,114.64951 5,93.9050795 5,31.0239132 L57.4911641,5.00354031 L57.4911641,5 L57.5,5.00177015 L57.5061851,5 L57.5061851,5.00354031 L110,31.0239132 C110,93.9050795 58.3765168,114.64951 57.5061851,114.99646 L57.5061851,114.99646 Z" id="Fill-7" fill="#FBC13D"></path>
            <path d="M84.4489592,25.1645732 C80.1598979,24.9395759 77.3787298,28.009558 76.0086963,30.8536639 L76.0086963,27.3354451 C63.8787617,24.2215183 51.3009974,24.2215183 39.1693503,27.3354451 L39.1693503,31.2412568 C37.8712435,28.295199 35.0361304,24.9281503 30.5518393,25.1645732 C21.5901073,26.3537188 21.3768958,38.1757425 25.8928689,46.0673454 C31.1212595,55.6165452 39.4895957,61.0911854 43.4130293,62.7909693 C43.0842212,63.1513165 42.8727223,63.6329513 42.8727223,64.140074 C42.8727223,65.0848867 43.5919899,65.7343904 44.4756615,65.5586113 C45.1966417,65.4153514 45.7977439,64.7799099 45.9963988,64.0583367 C48.5677805,67.1388655 51.7205702,69.6235031 54.0307893,71.2274875 C53.9083425,79.5049255 53.1479739,93.9117809 48.8957323,97.6180833 C47.0855754,97.8685685 45.2848376,98.1946387 43.4952313,98.6050829 L43.4952313,101.43249 C52.6042419,103.522503 62.0506232,103.522503 71.1604901,101.43249 L71.1604901,98.6050829 C69.5095996,98.2254001 67.8492902,97.9186655 66.1812744,97.6778482 C61.8622436,94.0752554 61.0933123,79.5515069 60.969153,71.2274875 C63.279372,69.6235031 66.433018,67.1388655 69.0035435,64.0583367 C69.2013421,64.7799099 69.8024443,65.4153514 70.5242807,65.5586113 C71.4088086,65.7343904 72.1263637,65.0848867 72.1263637,64.140074 C72.1263637,63.6329513 71.9148648,63.1513165 71.586913,62.7909693 C75.5103466,61.0911854 83.879539,55.6165452 89.1070733,46.0673454 C93.6230464,38.1757425 93.4098349,26.3537188 84.4489592,25.1645732 M33.1275024,52.4112132 C26.2593529,44.2814297 23.4482153,31.5998462 29.4737941,29.01853 C32.9100095,27.6597576 34.2911746,30.692826 35.6997404,33.2038305 C35.5199234,33.6177903 35.4128896,34.0756949 35.4128896,34.5669975 C35.4128896,36.3687333 36.7555225,37.8329732 38.4055566,37.8786758 C39.0212154,37.8927381 39.5940607,37.7143223 40.0675786,37.3917677 C40.2217073,41.4759952 40.6164483,48.443 41.604585,55.1823708 C41.9282554,57.3813674 42.8230586,59.4581975 44.0269755,61.3715531 C41.5968785,59.9213755 37.1947895,57.2143773 33.1275024,52.4112132 M81.8724399,52.4112132 C77.8042965,57.2143773 73.4022075,59.9213755 70.973823,61.3715531 C72.1768837,59.4581975 73.0725431,57.3813674 73.3953573,55.1823708 C74.383494,48.443 74.7773786,41.4759952 74.9332199,37.3917677 C75.4075941,37.7143223 75.9787268,37.8927381 76.5943856,37.8786758 C78.2461323,37.8329732 79.5879089,36.3687333 79.5879089,34.5669975 C79.5879089,34.0756949 79.4800188,33.6177903 79.3019144,33.2038305 C80.7087676,30.692826 82.0925015,27.6597576 85.5261481,29.01853 C91.5517269,31.5998462 88.7405893,44.2814297 81.8724399,52.4112132" id="Fill-9" fill="#FFCD46"></path>
            <polygon id="Star-2" fill="#E38E00" points="57.8345045 42.7793349 53.6105484 45 54.4172522 40.2965558 51 36.9655581 55.7225264 36.2793349 57.8345045 32 59.9464825 36.2793349 64.6690089 36.9655581 61.2517567 40.2965558 62.0584605 45"></polygon>
            <path d="M57.8474646,56.3049867 C59.3506495,55.6328683 60.947786,54.7881203 62.4324124,53.7488039 C62.6106932,53.6289611 62.814818,53.4830625 63.0415969,53.3096122 C62.7744306,53.2144837 62.3971958,53.0270204 62.1251176,52.6567971 C61.6546678,52.0187541 61.8834471,51.3660453 61.8834471,51.3660453 C61.8834471,51.3660453 62.6103062,51.394666 63.096095,52.0671144 C63.3485035,52.4162091 63.4076557,52.7636033 63.4094179,53.0176619 C63.703976,52.7755499 64.0237764,52.4924539 64.3600339,52.1648217 C64.1176216,52.0561657 63.7468468,51.8326127 63.5194554,51.4169162 C63.1520275,50.7495083 63.4476725,50.1276795 63.4476725,50.1276795 C63.4476725,50.1276795 64.131792,50.2225293 64.508913,50.9245299 C64.6899723,51.262753 64.7152685,51.5867134 64.6941612,51.8304267 C64.9739302,51.5415057 65.260618,51.2258755 65.5520946,50.8767737 C65.2937739,50.7706744 64.783928,50.5016612 64.49784,49.9376848 C64.0974188,49.1495453 64.4553898,48.4329699 64.4553898,48.4329699 C64.4553898,48.4329699 65.235685,48.5575133 65.6464823,49.3856683 C65.8708992,49.8377659 65.8648202,50.2599301 65.8165754,50.5512034 C66.1499862,50.12992 66.4846082,49.6670621 66.813226,49.1609473 C66.5148556,49.1031569 65.9866593,48.9444075 65.5838047,48.5005812 C64.9844759,47.8415107 65.1535108,47.0926615 65.1535108,47.0926615 C65.1535108,47.0926615 65.9593188,47.051716 66.5819868,47.747809 C66.911309,48.1170934 67.019401,48.5039705 67.0493938,48.7866679 C67.3243775,48.3414849 67.5921446,47.8650437 67.8493829,47.3553188 C67.5258418,47.3412861 66.9502083,47.260453 66.4493877,46.8777485 C65.6987327,46.304954 65.7300831,45.5265075 65.7300831,45.5265075 C65.7300831,45.5265075 66.5616193,45.3579699 67.3432977,45.966571 C67.7720645,46.2983878 67.9565702,46.6860387 68.0393637,46.9682648 C68.073787,46.8955852 68.1086996,46.8250247 68.1424604,46.7519399 C68.280133,46.4562037 68.3934792,46.1610613 68.4906724,45.867416 C68.1522317,45.8529169 67.561678,45.7665998 67.0486379,45.3777878 C66.2658901,44.7867327 66.2902481,43.9730701 66.2902481,43.9730701 C66.2902481,43.9730701 67.149188,43.7926254 67.9650688,44.4212322 C68.3468833,44.7147814 68.5433823,45.0533463 68.6486167,45.3292755 C68.7600827,44.8978478 68.8335459,44.4718456 68.8750396,44.0576884 C68.5372116,44.0754141 67.892606,44.0506832 67.2999427,43.6841599 C66.4387959,43.1502673 66.3796773,42.3274169 66.3796773,42.3274169 C66.3796773,42.3274169 67.2395113,42.0719887 68.1382853,42.6407213 C68.5443331,42.8963096 68.7760315,43.2049845 68.9148557,43.4686946 C68.9320512,42.9887182 68.9117742,42.5263217 68.8638597,42.0920692 C68.5160354,42.1478171 67.892589,42.1851658 67.2705682,41.9108001 C66.3242985,41.4936583 66.1407356,40.6911675 66.1407356,40.6911675 C66.1407356,40.6911675 66.9653756,40.335047 67.9573032,40.7823846 C68.3216452,40.9460386 68.5788488,41.1606551 68.7594243,41.3661769 C68.6823427,40.9386582 68.5852266,40.547573 68.4826496,40.2018335 C68.1342754,40.2699852 67.5516148,40.3213554 66.9506406,40.0962603 C65.9872415,39.7355288 65.750196,38.9576622 65.750196,38.9576622 C65.750196,38.9576622 66.5395425,38.5644888 67.5504439,38.9510842 C67.8019972,39.047585 68.0063763,39.1689279 68.1725794,39.2974103 C68.0461966,38.9766982 67.9393235,38.755277 67.8883943,38.6554273 C67.5834016,38.6527374 67.0327883,38.5940298 66.5324884,38.2357589 C65.7914962,37.7048185 65.7700059,36.9463838 65.7700059,36.9463838 C65.7700059,36.9463838 66.5382537,36.7550689 67.3130208,37.3189485 C67.4680435,37.4310388 67.5867043,37.553198 67.6888452,37.6752648 C67.6633617,37.5254555 67.6551212,37.3616207 67.6853826,37.1822005 C67.8181151,36.3993215 68.5158322,36.0010746 68.5158322,36.0010746 C68.5158322,36.0010746 69.066887,36.4313336 68.9228843,37.2491808 C68.8172947,37.8539177 68.4027302,38.2465037 68.2001652,38.4065513 C68.215606,38.4364688 68.3295517,38.654025 68.4793149,39.0217949 C68.4885523,38.8572731 68.5135553,38.6846474 68.577203,38.5019837 C68.907201,37.5558163 69.8295439,37.1916483 69.8295439,37.1916483 C69.8295439,37.1916483 70.3940586,37.8280641 70.0439752,38.812909 C69.7636638,39.5997252 69.1065593,40.0137076 68.8642271,40.1444315 C68.9435146,40.4213287 69.0191241,40.7241867 69.0837177,41.0507934 C69.1147217,40.8326972 69.1801305,40.5960553 69.3153795,40.3538922 C69.8047299,39.4769626 70.7459016,39.2658144 70.7459016,39.2658144 C70.7459016,39.2658144 71.1624121,39.9782526 70.6492256,40.887471 C70.2057018,41.6745792 69.4256155,41.9674 69.2313018,42.0301181 C69.2687677,42.3920057 69.2888888,42.7724066 69.2859987,43.1664907 C69.3704344,42.9260141 69.5042254,42.6652144 69.7306449,42.418744 C70.4160689,41.6740034 71.3364483,41.6808261 71.3364483,41.6808261 C71.3364483,41.6808261 71.5304057,42.4691983 70.8167325,43.2394341 C70.2273975,43.8754949 69.477828,44.0072518 69.2381315,44.0335721 C69.2067638,44.3388063 69.1598038,44.6504304 69.093817,44.9658891 C69.1822825,44.8439023 69.2814998,44.7216654 69.4113724,44.60407 C70.1392459,43.9421634 70.9827546,43.9979832 70.9827546,43.9979832 C70.9827546,43.9979832 71.055435,44.7440417 70.2960002,45.4294178 C69.6993036,45.9695215 69.0342488,46.0706059 68.7788474,46.0905073 C68.6938001,46.3283349 68.5971655,46.5677216 68.4868339,46.8069222 C68.6948901,46.5942675 68.9700858,46.376715 69.3257739,46.2170307 C70.303432,45.7770339 71.079812,46.133509 71.079812,46.133509 C71.079812,46.133509 70.8296981,46.9451618 69.8162387,47.4001204 C69.0502997,47.7443628 68.3909038,47.643247 68.1118861,47.5731761 C67.8702898,48.0446914 67.6203459,48.4874418 67.3652443,48.9029229 C67.6746208,48.6707828 68.1568488,48.3864599 68.7776735,48.2810778 C69.8844433,48.0947566 70.5120688,48.6373607 70.5120688,48.6373607 C70.5120688,48.6373607 69.9836808,49.3698424 68.8355657,49.566825 C67.9641812,49.7155444 67.3544004,49.4523038 67.1066367,49.3130751 C66.7976053,49.7906724 66.481928,50.2296252 66.1673601,50.6314914 C66.4711112,50.4045562 66.9223688,50.1413343 67.5003393,50.0302208 C68.6021959,49.8176901 69.2494588,50.3295328 69.2494588,50.3295328 C69.2494588,50.3295328 68.7454686,51.0641943 67.6037648,51.2864825 C66.6730482,51.4689892 66.0332432,51.179198 65.8219138,51.0622499 C65.5007312,51.447786 65.1840721,51.7937731 64.8770628,52.1051662 C65.2044693,51.9190869 65.6763459,51.7180693 66.2421608,51.6750527 C67.3398132,51.5946314 67.8890495,52.182119 67.8890495,52.182119 C67.8890495,52.182119 67.2910227,52.8519946 66.1508731,52.940553 C65.233819,53.0122041 64.6606112,52.6584883 64.4639358,52.5113713 C64.2087259,52.7538857 63.9621776,52.9698467 63.730793,53.1627755 C63.7149463,53.180385 63.7000067,53.1994591 63.6845778,53.2164141 C64.0343569,53.1099915 64.4963218,53.026218 64.9956227,53.096772 C66.0404419,53.243393 66.3938784,53.9413749 66.3938784,53.9413749 C66.3938784,53.9413749 65.6535062,54.4850727 64.5645284,54.3369278 C63.8283723,54.2384665 63.401582,53.8905684 63.1954158,53.6703073 C61.5590912,54.8097936 59.9903092,55.7704221 58.4771095,56.5790496 C60.3431748,57.3696246 62.0116273,57.8879578 63.0623431,58.1786919 C63.2348438,58.3457495 63.1907016,59.017481 63.0696681,59.088311 C61.393752,58.5470552 59.6600817,57.8362959 57.8474646,56.9084458 C56.0348474,57.8362959 54.3011771,58.5470552 52.6252611,59.088311 C52.5042276,59.017481 52.4600854,58.3457495 52.632586,58.1786919 C53.6833019,57.8879578 55.3517544,57.3696246 57.2178197,56.5790496 C55.7046199,55.7704221 54.1358379,54.8097936 52.4995133,53.6703073 C52.2933472,53.8905684 51.8665569,54.2384665 51.1304008,54.3369278 C50.041423,54.4850727 49.3010508,53.9413749 49.3010508,53.9413749 C49.3010508,53.9413749 49.6544872,53.243393 50.6993065,53.096772 C51.1986074,53.026218 51.6605723,53.1099915 52.0103514,53.2164141 C51.9949225,53.1994591 51.9799829,53.180385 51.9641362,53.1627755 C51.7327516,52.9698467 51.4862033,52.7538857 51.2309934,52.5113713 C51.0343179,52.6584883 50.4611102,53.0122041 49.544056,52.940553 C48.4039065,52.8519946 47.8058796,52.182119 47.8058796,52.182119 C47.8058796,52.182119 48.355116,51.5946314 49.4527684,51.6750527 C50.0185833,51.7180693 50.4904599,51.9190869 50.8178664,52.1051662 C50.5108571,51.7937731 50.194198,51.447786 49.8730154,51.0622499 C49.661686,51.179198 49.021881,51.4689892 48.0911644,51.2864825 C46.9494605,51.0641943 46.4454704,50.3295328 46.4454704,50.3295328 C46.4454704,50.3295328 47.0927333,49.8176901 48.1945899,50.0302208 C48.7725604,50.1413343 49.2238179,50.4045562 49.5275691,50.6314914 C49.2130012,50.2296252 48.8973238,49.7906724 48.5882925,49.3130751 C48.3405287,49.4523038 47.730748,49.7155444 46.8593635,49.566825 C45.7112484,49.3698424 45.1828604,48.6373607 45.1828604,48.6373607 C45.1828604,48.6373607 45.8104859,48.0947566 46.9172556,48.2810778 C47.5380804,48.3864599 48.0203083,48.6707828 48.3296849,48.9029229 C48.0745832,48.4874418 47.8246393,48.0446914 47.5830431,47.5731761 C47.3040254,47.643247 46.6446295,47.7443628 45.8786905,47.4001204 C44.8652311,46.9451618 44.6151172,46.133509 44.6151172,46.133509 C44.6151172,46.133509 45.3914972,45.7770339 46.3691553,46.2170307 C46.7248434,46.376715 47.0000391,46.5942675 47.2080953,46.8069222 C47.0977637,46.5677216 47.0011291,46.3283349 46.9160818,46.0905073 C46.6606804,46.0706059 45.9956256,45.9695215 45.398929,45.4294178 C44.6394942,44.7440417 44.7121745,43.9979832 44.7121745,43.9979832 C44.7121745,43.9979832 45.5556833,43.9421634 46.2835568,44.60407 C46.4134294,44.7216654 46.5126467,44.8439023 46.6011122,44.9658891 C46.5351253,44.6504304 46.4881653,44.3388063 46.4567977,44.0335721 C46.2171012,44.0072518 45.4675317,43.8754949 44.8781967,43.2394341 C44.1645235,42.4691983 44.3584809,41.6808261 44.3584809,41.6808261 C44.3584809,41.6808261 45.2788603,41.6740034 45.9642843,42.418744 C46.1907038,42.6652144 46.3244948,42.9260141 46.4089305,43.1664907 C46.4060404,42.7724066 46.4261615,42.3920057 46.4636274,42.0301181 C46.2693137,41.9674 45.4892274,41.6745792 45.0457036,40.887471 C44.5325171,39.9782526 44.9490276,39.2658144 44.9490276,39.2658144 C44.9490276,39.2658144 45.8901993,39.4769626 46.3795497,40.3538922 C46.5147987,40.5960553 46.5802075,40.8326972 46.6112115,41.0507934 C46.6758051,40.7241867 46.7514146,40.4213287 46.8307021,40.1444315 C46.5883699,40.0137076 45.9312654,39.5997252 45.650954,38.812909 C45.3008705,37.8280641 45.8653853,37.1916483 45.8653853,37.1916483 C45.8653853,37.1916483 46.7877282,37.5558163 47.1177262,38.5019837 C47.1813739,38.6846474 47.2063769,38.8572731 47.2156143,39.0217949 C47.3653775,38.654025 47.4793232,38.4364688 47.494764,38.4065513 C47.292199,38.2465037 46.8776345,37.8539177 46.7720449,37.2491808 C46.6280422,36.4313336 47.179097,36.0010746 47.179097,36.0010746 C47.179097,36.0010746 47.8768141,36.3993215 48.0095466,37.1822005 C48.039808,37.3616207 48.0315675,37.5254555 48.006084,37.6752648 C48.1082248,37.553198 48.2268856,37.4310388 48.3819083,37.3189485 C49.1566755,36.7550689 49.9249233,36.9463838 49.9249233,36.9463838 C49.9249233,36.9463838 49.903433,37.7048185 49.1624408,38.2357589 C48.6621408,38.5940298 48.1115276,38.6527374 47.8065349,38.6554273 C47.7556057,38.755277 47.6487326,38.9766982 47.5223498,39.2974103 C47.6885528,39.1689279 47.8929319,39.047585 48.1444853,38.9510842 C49.1553867,38.5644888 49.9447332,38.9576622 49.9447332,38.9576622 C49.9447332,38.9576622 49.7076877,39.7355288 48.7442885,40.0962603 C48.1433144,40.3213554 47.5606538,40.2699852 47.2122796,40.2018335 C47.1097026,40.547573 47.0125865,40.9386582 46.9355049,41.3661769 C47.1160804,41.1606551 47.373284,40.9460386 47.737626,40.7823846 C48.7295535,40.335047 49.5541936,40.6911675 49.5541936,40.6911675 C49.5541936,40.6911675 49.3706307,41.4936583 48.4243609,41.9108001 C47.8023401,42.1851658 47.1788937,42.1478171 46.8310695,42.0920692 C46.783155,42.5263217 46.762878,42.9887182 46.7800735,43.4686946 C46.9188977,43.2049845 47.1505961,42.8963096 47.5566439,42.6407213 C48.4554179,42.0719887 49.3152519,42.3274169 49.3152519,42.3274169 C49.3152519,42.3274169 49.2561333,43.1502673 48.3949865,43.6841599 C47.8023232,44.0506832 47.1577176,44.0754141 46.8198895,44.0576884 C46.8613833,44.4718456 46.9348465,44.8978478 47.0463125,45.3292755 C47.1515469,45.0533463 47.3480459,44.7147814 47.7298604,44.4212322 C48.5457412,43.7926254 49.4046811,43.9730701 49.4046811,43.9730701 C49.4046811,43.9730701 49.4290391,44.7867327 48.6462912,45.3777878 C48.1332512,45.7665998 47.5426975,45.8529169 47.2042568,45.867416 C47.30145,46.1610613 47.4147962,46.4562037 47.5524688,46.7519399 C47.5862296,46.8250247 47.6211421,46.8955852 47.6555654,46.9682648 C47.738359,46.6860387 47.9228647,46.2983878 48.3516315,45.966571 C49.1333099,45.3579699 49.964846,45.5265075 49.964846,45.5265075 C49.964846,45.5265075 49.9961965,46.304954 49.2455415,46.8777485 C48.7447209,47.260453 48.1690874,47.3412861 47.8455462,47.3553188 C48.1027846,47.8650437 48.3705517,48.3414849 48.6455354,48.7866679 C48.6755282,48.5039705 48.7836202,48.1170934 49.1129424,47.747809 C49.7356104,47.051716 50.5414184,47.0926615 50.5414184,47.0926615 C50.5414184,47.0926615 50.7104532,47.8415107 50.1111245,48.5005812 C49.7082699,48.9444075 49.1800736,49.1031569 48.8817032,49.1609473 C49.210321,49.6670621 49.544943,50.12992 49.8783538,50.5512034 C49.830109,50.2599301 49.82403,49.8377659 50.0484469,49.3856683 C50.4592442,48.5575133 51.2395394,48.4329699 51.2395394,48.4329699 C51.2395394,48.4329699 51.5975104,49.1495453 51.1970892,49.9376848 C50.9110011,50.5016612 50.4011553,50.7706744 50.1428346,50.8767737 C50.4343111,51.2258755 50.720999,51.5415057 51.000768,51.8304267 C50.9796607,51.5867134 51.0049569,51.262753 51.1860162,50.9245299 C51.5631372,50.2225293 52.2472567,50.1276795 52.2472567,50.1276795 C52.2472567,50.1276795 52.5429017,50.7495083 52.1754738,51.4169162 C51.9480824,51.8326127 51.5773076,52.0561657 51.3348953,52.1648217 C51.6711528,52.4924539 51.9909531,52.7755499 52.2855113,53.0176619 C52.2872734,52.7636033 52.3464257,52.4162091 52.5988341,52.0671144 C53.084623,51.394666 53.8114821,51.3660453 53.8114821,51.3660453 C53.8114821,51.3660453 54.0402614,52.0187541 53.5698116,52.6567971 C53.2977333,53.0270204 52.9204986,53.2144837 52.6533323,53.3096122 C52.8801112,53.4830625 53.084236,53.6289611 53.2625168,53.7488039 C54.7471432,54.7881203 56.3442797,55.6328683 57.8474646,56.3049867 Z" id="Combined-Shape" fill="#E38E00"></path>
        </g>
    </g>
</svg>